<?xml version="1.0" standalone="no"?><svg xmlns="http://www.w3.org/2000/svg" viewBox="0 0 1440 320"><path fill="#333333" fill-opacity="1" d="M0,224L17.1,213.3C34.3,203,69,181,103,154.7C137.1,128,171,96,206,74.7C240,53,274,43,309,64C342.9,85,377,139,411,138.7C445.7,139,480,85,514,64C548.6,43,583,53,617,58.7C651.4,64,686,64,720,101.3C754.3,139,789,213,823,213.3C857.1,213,891,139,926,138.7C960,139,994,213,1029,250.7C1062.9,288,1097,288,1131,256C1165.7,224,1200,160,1234,165.3C1268.6,171,1303,245,1337,282.7C1371.4,320,1406,320,1423,320L1440,320L1440,320L1422.9,320C1405.7,320,1371,320,1337,320C1302.9,320,1269,320,1234,320C1200,320,1166,320,1131,320C1097.1,320,1063,320,1029,320C994.3,320,960,320,926,320C891.4,320,857,320,823,320C788.6,320,754,320,720,320C685.7,320,651,320,617,320C582.9,320,549,320,514,320C480,320,446,320,411,320C377.1,320,343,320,309,320C274.3,320,240,320,206,320C171.4,320,137,320,103,320C68.6,320,34,320,17,320L0,320Z"></path></svg>